<svg id="Capa_1" enable-background="new 0 0 512 512" height="512" viewBox="0 0 512 512" width="512" xmlns="http://www.w3.org/2000/svg"><g><path d="m346 211c24.813 0 45-20.187 45-45s-20.187-45-45-45-45 20.187-45 45 20.187 45 45 45zm0-60c8.271 0 15 6.729 15 15s-6.729 15-15 15-15-6.729-15-15 6.729-15 15-15z"/><path d="m256 512c140.959 0 256-115.049 256-256 0-140.957-115.048-256-256-256-140.959 0-256 115.049-256 256 0 140.957 115.048 256 256 256zm0-482c124.617 0 226 101.383 226 226s-101.383 226-226 226-226-101.383-226-226 101.383-226 226-226z"/><path d="m196 391c41.355 0 75-33.645 75-75v-15h-30v15c0 24.813-20.187 45-45 45s-45-20.187-45-45v-120c0-24.813 20.187-45 45-45s45 20.187 45 45v15h30v-15c0-41.355-33.645-75-75-75s-75 33.645-75 75v120c0 41.355 33.645 75 75 75z"/></g></svg>