<?xml version="1.0" encoding="iso-8859-1"?>
<!-- Generator: Adobe Illustrator 19.0.0, SVG Export Plug-In . SVG Version: 6.00 Build 0)  -->
<svg version="1.1" id="Capa_1" xmlns="http://www.w3.org/2000/svg" xmlns:xlink="http://www.w3.org/1999/xlink" x="0px" y="0px"
	 viewBox="0 0 512 512" style="enable-background:new 0 0 512 512;" xml:space="preserve">
<path style="fill:#006DF0;" d="M299.569,76.911v275.942c-26.658,9.429-40.627,38.682-31.206,65.34
	c9.429,26.658,38.682,40.627,65.34,31.206c26.658-9.421,40.627-38.682,31.206-65.34c-5.154-14.583-16.623-26.052-31.206-31.206V76.8
	L299.569,76.911z"/>
<path style="fill:#231F20;" d="M316.636,512c-61.269,0.051-110.976-49.579-111.019-110.848
	c-0.034-37.922,19.311-73.233,51.285-93.619V59.733C256.937,26.761,283.663,0.034,316.636,0
	c32.973,0.043,59.691,26.761,59.733,59.733v25.6h-17.067v-25.6c-0.043-23.543-19.123-42.624-42.667-42.667
	c-23.552,0.026-42.641,19.115-42.667,42.667V312.32c0,3.046-1.63,5.862-4.267,7.39c-44.894,25.924-60.279,83.328-34.355,128.222
	s83.328,60.279,128.222,34.355c44.894-25.924,60.279-83.328,34.355-128.222c-8.235-14.268-20.087-26.121-34.355-34.355
	c-2.637-1.527-4.267-4.343-4.267-7.39v-39.066h17.067v34.278c51.661,32.939,66.833,101.521,33.886,153.182
	C389.869,492.689,354.558,512.034,316.636,512z M316.542,460.8c-4.241-0.009-8.465-0.444-12.612-1.306
	c-32.239-6.989-52.719-38.784-45.73-71.031c3.925-18.133,16.06-33.417,32.836-41.344V76.911c0-4.71,3.823-8.533,8.533-8.533
	l34.133-0.111l0,0c4.71,0,8.533,3.823,8.533,8.533v270.328c29.79,14.174,42.453,49.809,28.279,79.599
	C360.608,447.548,339.599,460.809,316.542,460.8z M308.103,85.419v267.435c0,3.635-2.304,6.861-5.734,8.055
	c-22.204,7.885-33.809,32.282-25.924,54.485c4.915,13.85,16.623,24.192,30.967,27.375c12.715,2.739,25.984-0.41,36.096-8.585
	c18.287-14.797,21.111-41.626,6.315-59.913c-4.949-6.118-11.494-10.743-18.918-13.363c-3.43-1.195-5.734-4.42-5.734-8.055V85.333
	L308.103,85.419z"/>
<path style="fill:#006DF0;" d="M230.748,89.6l-29.551,7.919l-21.094-12.186l21.094-12.177l29.551,7.919
	c4.557,1.195,9.225-1.527,10.419-6.084c1.186-4.531-1.493-9.173-6.007-10.402l-13.065-3.499l11.716-6.767
	c4.096-2.33,5.53-7.535,3.2-11.639c-2.33-4.105-7.535-5.53-11.639-3.2c-0.026,0.026-0.06,0.043-0.094,0.06l-11.716,6.767
	l3.499-13.073c1.101-4.582-1.724-9.19-6.315-10.283c-4.412-1.058-8.875,1.519-10.163,5.862l-7.91,29.559l-21.103,12.177V46.199
	l21.632-21.641c3.277-3.388,3.183-8.789-0.213-12.066c-3.311-3.191-8.55-3.191-11.853,0l-9.566,9.566V8.533
	c0-4.71-3.823-8.533-8.533-8.533s-8.533,3.823-8.533,8.533v13.525l-9.566-9.566c-3.388-3.277-8.789-3.183-12.066,0.213
	c-3.191,3.311-3.191,8.55,0,11.853l21.632,21.641v24.354l-21.094-12.177l-7.919-29.559c-1.229-4.548-5.922-7.236-10.47-6.007
	c-4.548,1.229-7.236,5.922-6.007,10.47l3.499,13.073l-11.716-6.81c-4.062-2.381-9.293-1.015-11.674,3.046
	c-2.381,4.062-1.015,9.293,3.046,11.674c0.034,0.017,0.068,0.034,0.094,0.06l11.716,6.767l-13.065,3.499
	c-4.591,1.075-7.433,5.666-6.357,10.257s5.666,7.433,10.257,6.357c0.171-0.043,0.35-0.085,0.521-0.137l29.551-7.919l21.086,12.186
	L124.875,97.51L95.324,89.6c-4.557-1.195-9.225,1.527-10.419,6.084c-1.186,4.531,1.493,9.173,6.007,10.402l13.065,3.499
	l-11.716,6.767c-4.096,2.33-5.53,7.535-3.2,11.639s7.535,5.53,11.639,3.2c0.034-0.017,0.068-0.034,0.094-0.06l11.716-6.767
	l-3.499,13.073c-1.22,4.548,1.476,9.233,6.033,10.453l0,0c0.725,0.196,1.468,0.29,2.219,0.29c3.857,0,7.236-2.594,8.235-6.323
	l7.91-29.559l21.094-12.186v24.354l-21.632,21.641c-3.277,3.388-3.183,8.789,0.213,12.066c3.311,3.191,8.55,3.191,11.853,0
	l9.566-9.566v13.525c0,4.71,3.823,8.533,8.533,8.533s8.533-3.823,8.533-8.533v-13.525l9.566,9.566
	c3.388,3.277,8.789,3.183,12.066-0.213c3.191-3.311,3.191-8.55,0-11.853l-21.632-21.641v-24.354l21.094,12.177l7.91,29.559
	c0.998,3.729,4.378,6.323,8.235,6.323c0.751,0,1.493-0.094,2.219-0.29c4.548-1.22,7.253-5.897,6.033-10.453l0,0l-3.499-13.073
	l11.716,6.767c4.062,2.381,9.293,1.015,11.674-3.046c2.381-4.062,1.015-9.293-3.046-11.674c-0.034-0.017-0.068-0.034-0.094-0.06
	l-11.716-6.767l13.065-3.499c4.548-1.237,7.228-5.931,5.99-10.479c-1.229-4.514-5.871-7.202-10.402-6.007V89.6z"/>
<g>
	<rect x="359.337" y="102.4" style="fill:#231F20;" width="34.133" height="17.067"/>
	<rect x="359.337" y="136.533" style="fill:#231F20;" width="34.133" height="17.067"/>
	<rect x="359.337" y="170.667" style="fill:#231F20;" width="34.133" height="17.067"/>
	<rect x="359.337" y="204.8" style="fill:#231F20;" width="34.133" height="17.067"/>
	<rect x="359.337" y="238.933" style="fill:#231F20;" width="34.133" height="17.067"/>
</g>
<g>
</g>
<g>
</g>
<g>
</g>
<g>
</g>
<g>
</g>
<g>
</g>
<g>
</g>
<g>
</g>
<g>
</g>
<g>
</g>
<g>
</g>
<g>
</g>
<g>
</g>
<g>
</g>
<g>
</g>
</svg>
