<?xml version="1.0" encoding="iso-8859-1"?>
<!-- Generator: Adobe Illustrator 18.0.0, SVG Export Plug-In . SVG Version: 6.00 Build 0)  -->
<!DOCTYPE svg PUBLIC "-//W3C//DTD SVG 1.1//EN" "http://www.w3.org/Graphics/SVG/1.1/DTD/svg11.dtd">
<svg version="1.1" id="Capa_1" xmlns="http://www.w3.org/2000/svg" xmlns:xlink="http://www.w3.org/1999/xlink" x="0px" y="0px"
	 viewBox="0 0 297 297" style="enable-background:new 0 0 297 297;" xml:space="preserve">
<g>
	<path d="M296.908,220.556c-1.235-17.832-15.598-32.466-33.41-34.039c-5.82-0.516-11.505,0.309-16.89,2.445
		c-1.896,0.751-4.025,0.66-5.851-0.252c-1.825-0.913-3.174-2.561-3.71-4.531c-4.345-15.978-18.954-27.138-35.527-27.138
		s-31.183,11.159-35.528,27.138c-0.536,1.969-1.885,3.617-3.71,4.531c-1.826,0.912-3.956,1.003-5.851,0.252
		c-4.348-1.725-8.889-2.593-13.542-2.593c-1.11,0-2.226,0.049-3.347,0.148c-17.813,1.572-32.176,16.206-33.411,34.039
		c-0.717,10.355,2.764,20.212,9.803,27.755c7.045,7.55,16.608,11.708,26.929,11.708h117.315c10.321,0,19.885-4.158,26.93-11.708
		C294.144,240.768,297.625,230.912,296.908,220.556z"/>
	<path d="M201.519,142.705c20.512,0,38.86,12.308,46.89,30.692c0.764-0.182,1.532-0.34,2.302-0.485
		c3.304-1.565,6.329-3.742,8.918-6.517c5.616-6.018,8.393-13.883,7.821-22.146c-0.985-14.226-12.444-25.899-26.654-27.154
		c-4.652-0.41-9.18,0.245-13.476,1.95c-1.897,0.753-4.025,0.661-5.851-0.251c-1.826-0.913-3.175-2.561-3.711-4.531
		c-3.466-12.748-15.122-21.651-28.345-21.651c-10.732,0-20.43,5.866-25.557,14.89c9.247,10.966,14.978,24.979,15.456,40.298
		C186.089,144.525,193.643,142.705,201.519,142.705z"/>
	<path d="M138.279,172.236c5.557-0.49,11.032-0.101,16.348,1.161c2.369-5.423,5.641-10.311,9.596-14.517
		c0.519-2.926,0.797-5.934,0.797-9.006c0-28.391-23.097-51.489-51.488-51.489s-51.488,23.098-51.488,51.489
		c0,22.94,15.086,42.406,35.853,49.04C105.907,184.243,120.909,173.768,138.279,172.236z"/>
	<path d="M113.533,72.129c5.656,0,10.241-4.586,10.241-10.241V47.223c0-5.656-4.586-10.241-10.241-10.241
		s-10.241,4.586-10.241,10.241v14.665C103.292,67.544,107.877,72.129,113.533,72.129z"/>
	<path d="M35.206,149.844c0-5.656-4.586-10.241-10.241-10.241H10.241C4.586,139.602,0,144.188,0,149.844
		c0,5.656,4.586,10.241,10.241,10.241h14.723C30.62,160.085,35.206,155.499,35.206,149.844z"/>
	<path d="M44.076,204.846l-10.369,10.369c-4,4-4,10.484,0,14.484c2,1.999,4.621,2.999,7.242,2.999c2.621,0,5.242-1,7.242-2.999
		L58.56,219.33c4-4,4-10.484,0-14.484C54.559,200.848,48.076,200.848,44.076,204.846z"/>
	<path d="M48.19,70.047c-4.001-3.999-10.483-3.999-14.484,0c-4,4-4,10.484,0,14.484L44.076,94.9c2,1.999,4.621,2.999,7.242,2.999
		c2.621,0,5.242-1,7.242-2.999c4-4,4-10.484,0-14.484L48.19,70.047z"/>
</g>
<g>
</g>
<g>
</g>
<g>
</g>
<g>
</g>
<g>
</g>
<g>
</g>
<g>
</g>
<g>
</g>
<g>
</g>
<g>
</g>
<g>
</g>
<g>
</g>
<g>
</g>
<g>
</g>
<g>
</g>
</svg>
